#!OML:ASF H:\LiuWeirdWalks\Patient Classification 1\Patient 1\Session 1\male.ASF
:FULLY-SPECIFIED
:DEGREES
1093
root 1.8111 17.9919 9.13634 1.12161 -1.70172 5.16941
lowerback 4.10245 -3.66983 -8.22319
upperback -0.533935 -5.28517 0.87914
thorax -2.03077 -2.53563 5.78378
lowerneck -13.6078 1.70333 7.01105
upperneck 20.7282 2.3362 -7.16361
head 8.88473 0.884581 -3.35286
rclavicle -1.56294e-014 6.36111e-015
rhumerus -45.0381 -11.3656 -74.188
rradius 30.027
rwrist -6.72164
rhand -16.6087 -4.25123
rfingers 7.12502
rthumb 9.61289 -34.0119
lclavicle -1.56294e-014 6.36111e-015
lhumerus -31.2559 -12.7194 91.678
lradius 37.3678
lwrist 13.9973
lhand -13.6968 -3.36085
lfingers 7.12502
lthumb 12.4214 26.2501
rfemur -34.0151 -1.506 14.456
rtibia 26.1275
rfoot -16.6195 -15.883
rtoes -13.6929
lfemur 11.2233 0.331541 -31.1207
ltibia 3.92886
lfoot -6.00202 12.2643
ltoes -10.5589
1094
root 1.80134 17.9846 9.19067 1.17639 -1.66492 5.23315
lowerback 4.02173 -3.68546 -8.24113
upperback -0.549223 -5.3002 0.881859
thorax -1.99721 -2.54405 5.79116
lowerneck -13.5619 1.69638 6.99689
upperneck 20.6902 2.33459 -7.17939
head 8.86304 0.881872 -3.35522
rclavicle 9.20621e-014 7.55382e-015
rhumerus -45.0876 -11.3162 -74.1507
rradius 29.9432
rwrist -6.67927
rhand -16.6308 -4.24868
rfingers 7.12502
rthumb 9.59158 -34.0103
lclavicle 9.20621e-014 7.55382e-015
lhumerus -31.2667 -12.7144 91.7599
lradius 37.2805
lwrist 13.9927
lhand -13.6954 -3.34859
lfingers 7.12502
lthumb 12.4228 26.2623
rfemur -33.863 -1.34699 14.3563
rtibia 25.7737
rfoot -16.6447 -15.7652
rtoes -13.8115
lfemur 11.4777 0.26654 -31.1682
ltibia 3.70097
lfoot -5.94179 12.2485
ltoes -10.7243
1095
root 1.79197 17.977 9.24617 1.22816 -1.62796 5.30481
lowerback 3.93938 -3.69763 -8.25745
upperback -0.565429 -5.31045 0.882115
thorax -1.96481 -2.55003 5.79483
lowerneck -13.521 1.68992 6.97888
upperneck 20.6641 2.33453 -7.19425
head 8.84641 0.879605 -3.35668
rclavicle 5.33985e-014 -3.57812e-015
rhumerus -45.1501 -11.2549 -74.1114
rradius 29.8765
rwrist -6.6471
rhand -16.6349 -4.21631
rfingers 7.12502
rthumb 9.58758 -33.9782
lclavicle 5.33985e-014 -3.57812e-015
lhumerus -31.2988 -12.7016 91.8477
lradius 37.217
lwrist 14.0022
lhand -13.6995 -3.35003
lfingers 7.12502
lthumb 12.4189 26.261
rfemur -33.7051 -1.22187 14.2557
rtibia 25.4565
rfoot -16.6698 -15.5987
rtoes -13.9549
lfemur 11.7516 0.202095 -31.2273
ltibia 3.4534
lfoot -5.87248 12.2331
ltoes -10.9031
1096
root 1.78212 17.9696 9.30199 1.28859 -1.58908 5.36519
lowerback 3.8552 -3.70128 -8.25584
upperback -0.590433 -5.30869 0.883178
thorax -1.94397 -2.54939 5.78938
lowerneck -13.4876 1.67409 6.94133
upperneck 20.666 2.32374 -7.19628
head 8.83951 0.871969 -3.35223
rclavicle -3.60049e-014 -2.46493e-014
rhumerus -45.2323 -11.2162 -74.0529
rradius 29.8084
rwrist -6.59688
rhand -16.623 -4.1592
rfingers 7.12502
rthumb 9.59906 -33.9205
lclavicle -3.60049e-014 -2.46493e-014
lhumerus -31.3527 -12.7067 91.9449
lradius 37.1668
lwrist 14.018
lhand -13.7093 -3.36367
lfingers 7.12502
lthumb 12.4094 26.248
rfemur -33.5517 -1.09379 14.168
rtibia 25.1715
rfoot -16.7036 -15.4449
rtoes -14.094
lfemur 12.0169 0.133755 -31.2719
ltibia 3.20765
lfoot -5.79893 12.2196
ltoes -11.0956
1097
root 1.77231 17.9624 9.35877 1.35343 -1.55896 5.41353
lowerback 3.76588 -3.69743 -8.23085
upperback -0.618467 -5.29552 0.883024
thorax -1.92735 -2.54304 5.76914
lowerneck -13.4552 1.65356 6.88982
upperneck 20.6825 2.30641 -7.18171
head 8.83694 0.861859 -3.34072
rclavicle 6.22941e-014 6.75868e-015
rhumerus -45.3208 -11.2061 -73.9803
rradius 29.7406
rwrist -6.54506
rhand -16.603 -4.12241
rfingers 7.12502
rthumb 9.61839 -33.8828
lclavicle 6.22941e-014 6.75868e-015
lhumerus -31.4122 -12.705 92.0387
lradius 37.1198
lwrist 14.0308
lhand -13.7172 -3.38272
lfingers 7.12502
lthumb 12.4017 26.2294
rfemur -33.3954 -0.961223 14.0947
rtibia 24.9105
rfoot -16.7228 -15.3097
rtoes -14.2356
lfemur 12.2577 0.0730799 -31.3028
ltibia 3.00733
lfoot -5.74752 12.215
ltoes -11.2904
1098
root 1.76181 17.9553 9.41655 1.426 -1.53092 5.46447
lowerback 3.6693 -3.69871 -8.21789
upperback -0.641214 -5.28891 0.882371
thorax -1.8991 -2.54054 5.75438
lowerneck -13.4569 1.63898 6.83241
upperneck 20.7177 2.29458 -7.15436
head 8.84734 0.85459 -3.32361
rclavicle -2.28354e-014 -1.07344e-014
rhumerus -45.3788 -11.2288 -73.8985
rradius 29.6501
rwrist -6.44212
rhand -16.5729 -4.0894
rfingers 7.12502
rthumb 9.64745 -33.8485
lclavicle -2.28354e-014 -1.07344e-014
lhumerus -31.4709 -12.6805 92.1109
lradius 37.0909
lwrist 14.0459
lhand -13.7422 -3.41062
lfingers 7.12502
lthumb 12.3777 26.203
rfemur -33.2342 -0.811864 14.015
rtibia 24.6672
rfoot -16.7358 -15.2169
rtoes -14.3412
lfemur 12.4423 0.0121414 -31.3319
ltibia 2.90521
lfoot -5.74172 12.2247
ltoes -11.4745
1099
root 1.75068 17.9486 9.47492 1.5056 -1.5064 5.50073
lowerback 3.57123 -3.69979 -8.19221
upperback -0.663517 -5.28127 0.88385
thorax -1.87058 -2.53769 5.73462
lowerneck -13.4455 1.62797 6.78531
upperneck 20.7247 2.28605 -7.13189
head 8.84615 0.849436 -3.30894
rclavicle 5.41191e-014 -3.97569e-015
rhumerus -45.4075 -11.331 -73.778
rradius 29.5089
rwrist -6.25544
rhand -16.5246 -4.06028
rfingers 7.12502
rthumb 9.69403 -33.8172
lclavicle 5.41191e-014 -3.97569e-015
lhumerus -31.5256 -12.653 92.1708
lradius 37.0592
lwrist 14.0636
lhand -13.7674 -3.43065
lfingers 7.12502
lthumb 12.3534 26.1844
rfemur -33.0693 -0.628622 13.9424
rtibia 24.4397
rfoot -16.7425 -15.1757
rtoes -14.4291
lfemur 12.5809 -0.0472248 -31.3405
ltibia 2.88013
lfoot -5.7713 12.2458
ltoes -11.6619
1100
root 1.73912 17.942 9.53417 1.5886 -1.4661 5.53226
lowerback 3.4918 -3.74076 -8.1943
upperback -0.62781 -5.32702 0.89723
thorax -1.78004 -2.56587 5.74235
lowerneck -13.6715 1.68151 6.79904
upperneck 20.7745 2.34943 -7.14414
head 8.91061 0.8752 -3.3096
rclavicle -4.87271e-014 -9.93923e-015
rhumerus -45.2467 -11.4275 -73.7166
rradius 29.3141
rwrist -6.02656
rhand -16.4843 -4.01637
rfingers 7.12502
rthumb 9.73294 -33.7715
lclavicle -4.87271e-014 -9.93923e-015
lhumerus -31.452 -12.5205 92.1369
lradius 37.0236
lwrist 14.0667
lhand -13.7852 -3.45608
lfingers 7.12502
lthumb 12.3362 26.16
rfemur -32.8927 -0.44877 13.8713
rtibia 24.2295
rfoot -16.7415 -15.166
rtoes -14.498
lfemur 12.6938 -0.122963 -31.3416
ltibia 2.90792
lfoot -5.82053 12.2766
ltoes -11.8586
1101
root 1.72743 17.9356 9.59435 1.66963 -1.42213 5.55064
lowerback 3.44866 -3.84446 -8.24197
upperback -0.491354 -5.45682 0.936385
thorax -1.58485 -2.64364 5.80128
lowerneck -14.2875 1.85482 6.934
upperneck 20.8794 2.55031 -7.24268
head 9.08052 0.959162 -3.3461
rclavicle -4.27387e-015 9.14409e-015
rhumerus -44.7699 -11.4553 -73.7868
rradius 29.0651
rwrist -5.79267
rhand -16.4634 -3.98182
rfingers 7.12502
rthumb 9.75313 -33.736
lclavicle -4.27387e-015 9.14409e-015
lhumerus -31.1537 -12.2175 91.9556
lradius 36.9823
lwrist 14.0649
lhand -13.8003 -3.4706
lfingers 7.12502
lthumb 12.3217 26.1463
rfemur -32.7007 -0.266091 13.8122
rtibia 24.0386
rfoot -16.7371 -15.169
rtoes -14.5599
lfemur 12.8174 -0.201746 -31.3284
ltibia 2.92749
lfoot -5.86078 12.3072
ltoes -12.0616
1102
root 1.71549 17.9293 9.65523 1.75128 -1.3571 5.56723
lowerback 3.44067 -4.00589 -8.3399
upperback -0.279711 -5.66528 0.998226
thorax -1.31086 -2.76667 5.91101
lowerneck -15.2256 2.12228 7.14222
upperneck 21.0686 2.85828 -7.3891
head 9.35194 1.08745 -3.39981
rclavicle 1.94064e-014 2.82274e-014
rhumerus -44.0578 -11.3653 -73.9903
rradius 28.8099
rwrist -5.61024
rhand -16.4758 -3.94578
rfingers 7.12502
rthumb 9.74111 -33.7005
lclavicle 1.94064e-014 2.82274e-014
lhumerus -30.6791 -11.761 91.6596
lradius 36.9301
lwrist 14.0538
lhand -13.7973 -3.48275
lfingers 7.12502
lthumb 12.3246 26.134
rfemur -32.4939 -0.0982122 13.7529
rtibia 23.8669
rfoot -16.7249 -15.1826
rtoes -14.6317
lfemur 12.9475 -0.301194 -31.3133
ltibia 2.94422
lfoot -5.88994 12.3413
ltoes -12.2823
1103
root 1.70381 17.9228 9.71777 1.82718 -1.28025 5.58778
lowerback 3.46302 -4.22859 -8.49184
upperback -0.0156935 -5.95788 1.0813
thorax -0.976386 -2.93674 6.07177
lowerneck -16.346 2.48972 7.44609
upperneck 21.2806 3.28409 -7.607
head 9.68162 1.2656 -3.47832
rclavicle -5.36719e-014 4.05521e-014
rhumerus -43.1652 -11.1151 -74.3201
rradius 28.5574
rwrist -5.46721
rhand -16.497 -3.9266
rfingers 7.12502
rthumb 9.72068 -33.6823
lclavicle -5.36719e-014 4.05521e-014
lhumerus -30.0995 -11.1242 91.2645
lradius 36.8804
lwrist 14.0263
lhand -13.7722 -3.47717
lfingers 7.12502
lthumb 12.3488 26.1381
rfemur -32.2662 0.0306369 13.6968
rtibia 23.7156
rfoot -16.718 -15.1588
rtoes -14.6919
lfemur 13.1032 -0.410699 -31.3061
ltibia 2.93999
lfoot -5.90134 12.3766
ltoes -12.514
1104
root 1.69163 17.9164 9.78138 1.90975 -1.19667 5.59779
lowerback 3.49403 -4.4614 -8.65068
upperback 0.234709 -6.2656 1.17885
thorax -0.653282 -3.11447 6.25082
lowerneck -17.439 2.87187 7.75552
upperneck 21.4914 3.72862 -7.83841
head 10.0126 1.44958 -3.55709
rclavicle 4.53229e-014 -2.46493e-014
rhumerus -42.2838 -10.7981 -74.6586
rradius 28.3242
rwrist -5.37152
rhand -16.5258 -3.90325
rfingers 7.12502
rthumb 9.69288 -33.6602
lclavicle 4.53229e-014 -2.46493e-014
lhumerus -29.551 -10.4387 90.8792
lradius 36.8263
lwrist 13.9595
lhand -13.7403 -3.4852
lfingers 7.12502
lthumb 12.3795 26.1283
rfemur -32.0336 0.15956 13.6529
rtibia 23.5826
rfoot -16.7199 -15.1297
rtoes -14.7423
lfemur 13.2678 -0.528212 -31.2856
ltibia 2.91097
lfoot -5.89117 12.4087
ltoes -12.7565
1105
root 1.67966 17.9103 9.84661 1.99281 -1.11547 5.60606
lowerback 3.50687 -4.66984 -8.78096
upperback 0.427325 -6.54072 1.27147
thorax -0.386719 -3.27215 6.40853
lowerneck -18.2937 3.20707 8.02465
upperneck 21.6385 4.12247 -8.04985
head 10.2743 1.61177 -3.62516
rclavicle -5.58585e-014 2.74323e-014
rhumerus -41.571 -10.4698 -74.9349
rradius 28.1353
rwrist -5.31462
rhand -16.5547 -3.89054
rfingers 7.12502
rthumb 9.66499 -33.6488
lclavicle -5.58585e-014 2.74323e-014
lhumerus -29.1366 -9.80867 90.5697
lradius 36.7673
lwrist 13.8913
lhand -13.699 -3.47545
lfingers 7.12502
lthumb 12.4193 26.1356
rfemur -31.7986 0.251357 13.6254
rtibia 23.4685
rfoot -16.7232 -15.0574
rtoes -14.8018
lfemur 13.4606 -0.643316 -31.265
ltibia 2.83515
lfoot -5.85831 12.4324
ltoes -12.9911
1106
root 1.66733 17.905 9.91282 2.08537 -1.0311 5.60797
lowerback 3.47428 -4.77643 -8.80299
upperback 0.479193 -6.67803 1.32596
thorax -0.281147 -3.34825 6.47026
lowerneck -18.6327 3.35929 8.15095
upperneck 21.6982 4.30591 -8.16038
head 10.3834 1.68664 -3.66061
rclavicle 6.59965e-014 -1.23246e-014
rhumerus -41.2984 -10.3451 -74.9957
rradius 28.0238
rwrist -5.27854
rhand -16.57 -3.89874
rfingers 7.12502
rthumb 9.65028 -33.6577
lclavicle 6.59965e-014 -1.23246e-014
lhumerus -29.0421 -9.49604 90.4645
lradius 36.7151
lwrist 13.8137
lhand -13.6749 -3.48636
lfingers 7.12502
lthumb 12.4426 26.1233
rfemur -31.5772 0.324974 13.6135
rtibia 23.3702
rfoot -16.7096 -14.9733
rtoes -14.8636
lfemur 13.672 -0.763843 -31.2345
ltibia 2.70573
lfoot -5.79504 12.4406
ltoes -13.2232
1107
root 1.65465 17.9009 9.97929 2.18544 -0.951612 5.60929
lowerback 3.44951 -4.95189 -8.87869
upperback 0.484899 -6.91182 1.37439
thorax -0.205106 -3.46965 6.55758
lowerneck -18.7513 3.5859 8.45772
upperneck 21.6935 4.57111 -8.34753
head 10.4425 1.80955 -3.74106
rclavicle -9.52676e-014 7.95139e-015
rhumerus -41.0578 -10.0682 -75.1626
rradius 27.893
rwrist -5.20655
rhand -16.567 -3.92292
rfingers 7.12502
rthumb 9.65318 -33.6817
lclavicle -9.52676e-014 7.95139e-015
lhumerus -29.0719 -9.01444 90.247
lradius 36.6801
lwrist 13.7625
lhand -13.6696 -3.4909
lfingers 7.12502
lthumb 12.4476 26.1184
rfemur -31.3875 0.386087 13.6117
rtibia 23.2921
rfoot -16.6599 -14.8959
rtoes -14.9609
lfemur 13.934 -0.881836 -31.2002
ltibia 2.45589
lfoot -5.66864 12.4141
ltoes -13.469
